<svg width="440" height="63" viewBox="0 0 440 63" fill="none" xmlns="http://www.w3.org/2000/svg">
<path d="M438.664 27.8843C437.076 25.7542 434.268 23.8766 430.34 22.0599C423.479 18.9042 413.147 16.001 399.911 13.3953C360.217 5.58961 294.449 0.5 219.991 0.5C159.48 0.5 104.701 3.86302 65.0122 9.31103C45.1599 12.0362 29.0868 15.2752 17.9065 18.9019C12.3096 20.7187 7.94094 22.6234 4.89504 24.6633C3.37434 25.6866 2.17307 26.746 1.32724 27.8843C0.481405 29.0226 0 30.2645 0 31.5561C0 32.8477 0.485905 34.0851 1.32724 35.2257C2.91543 37.3557 5.72288 39.2334 9.6506 41.0501C16.5118 44.2058 26.844 47.109 40.0804 49.7146C79.7693 57.5203 145.537 62.6077 219.998 62.61C280.511 62.61 335.285 59.2447 374.992 53.7989C394.842 51.0738 410.915 47.8325 422.096 44.208C427.688 42.3913 432.057 40.4866 435.105 38.4467C436.628 37.4234 437.827 36.364 438.671 35.2257C439.514 34.0874 440 32.8454 440 31.5561C440 30.2668 439.496 29.0181 438.664 27.8843ZM189.285 3.88105C183.161 5.32138 177.587 7.18096 172.721 9.38316C166.647 12.1443 161.678 15.4375 158.2 19.1657C154.722 22.8938 152.72 27.0976 152.722 31.5561C152.725 36.0146 154.725 40.2184 158.2 43.9375C163.419 49.5253 171.961 54.1551 182.648 57.4347C184.781 58.0884 187.003 58.6834 189.3 59.2244C173.441 57.7525 159.269 55.1942 147.827 51.8402C138.622 49.1353 131.203 45.9278 126.16 42.4251C123.636 40.6782 121.712 38.8614 120.441 37.0357C119.17 35.2099 118.552 33.3931 118.552 31.5561C118.552 29.7191 119.179 27.9023 120.453 26.0743C122.673 22.8758 126.913 19.7202 132.825 16.8778C141.677 12.5952 154.227 8.9887 169.18 6.47545C175.466 5.41154 182.214 4.54149 189.285 3.88105ZM147.263 9.33582C137.927 12.0767 130.342 15.3361 125.017 19.0282C122.356 20.8765 120.255 22.833 118.797 24.9202C117.339 27.0075 116.527 29.2435 116.527 31.5561C116.527 33.8687 117.332 36.1025 118.79 38.1875C121.346 41.8368 125.852 45.1029 131.928 48.0421C140.836 52.3428 153.15 55.8974 167.768 58.4287C150.205 56.9072 134.42 54.6419 121.274 51.8176C108.676 49.1128 98.4834 45.8828 91.5345 42.3507C88.0589 40.588 85.3977 38.7442 83.6611 36.914C81.9244 35.0837 81.0966 33.294 81.0943 31.5516C81.0921 29.8092 81.9086 28.0308 83.6611 26.187C86.7115 22.9682 92.576 19.772 100.681 16.9161C112.833 12.62 130.024 9.00899 150.475 6.48221C156.014 5.806 161.795 5.19516 167.783 4.67898C160.861 5.84647 154.01 7.40347 147.263 9.34258V9.33582ZM173.547 51.892C167.637 49.2142 162.893 46.0315 159.665 42.5693C156.437 39.1071 154.729 35.397 154.716 31.5606C154.702 27.7242 156.421 24.0186 159.665 20.5474C164.503 15.3451 172.766 10.7987 183.233 7.59796C190.481 5.37548 198.782 3.79089 207.729 3.02677C202.167 5.42912 197.43 9.41095 194.101 14.4806C190.773 19.5502 188.999 25.4856 188.999 31.5539C188.999 37.6221 190.773 43.5575 194.101 48.6271C197.43 53.6968 202.167 57.6786 207.729 60.0809C194.474 58.9471 182.639 56.0147 173.547 51.892ZM120.853 9.32455C108.141 12.0564 97.8355 15.3023 90.6279 18.9606C87.0286 20.7931 84.1852 22.727 82.2033 24.8053C80.2215 26.8835 79.0832 29.1488 79.0832 31.5674C79.0832 33.986 80.226 36.2468 82.2033 38.316C85.6744 41.9427 91.7527 45.1705 100.006 48.0962C111.029 51.9889 125.935 55.2866 143.576 57.7548C124.774 56.2694 107.77 54.2542 93.2599 51.8244C77.0631 49.1196 63.9707 45.8805 55.0017 42.3281C50.5206 40.5565 47.072 38.6969 44.8112 36.8441C43.8318 36.082 42.9877 35.1599 42.3142 34.1167C41.8054 33.3638 41.5334 32.4755 41.5334 31.5662C41.5334 30.657 41.8054 29.7687 42.3142 29.0158C43.3107 27.3591 45.3781 25.5829 48.4487 23.8608C53.8162 20.8337 62.1823 17.9485 72.9419 15.3699C90.7404 11.0872 115.09 7.62952 143.558 5.37773C135.36 6.51602 127.752 7.8414 120.853 9.32455ZM199.493 52.0926C194.752 47.3409 191.802 41.089 191.145 34.4021C190.488 27.7152 192.166 21.0071 195.892 15.4206C199.618 9.83415 205.162 5.71502 211.579 3.76505C217.997 1.81507 224.89 2.15489 231.085 4.72661C237.281 7.29833 242.394 11.9428 245.555 17.8688C248.716 23.7947 249.728 30.6355 248.42 37.2255C247.111 43.8155 243.563 49.7471 238.379 54.0095C233.195 58.272 226.697 60.6017 219.991 60.6016C216.183 60.6071 212.412 59.8582 208.894 58.3979C205.376 56.9376 202.181 54.7947 199.493 52.0926ZM250.983 31.5561C250.984 25.4879 249.211 19.5522 245.883 14.4825C242.555 9.41274 237.817 5.43096 232.256 3.02903C245.508 4.15605 257.343 7.08629 266.435 11.2224C272.343 13.9002 277.089 17.0829 280.317 20.5429C283.546 24.0028 285.244 27.7175 285.244 31.5561C285.244 35.3947 283.539 39.0959 280.308 42.5648C275.467 47.7649 267.205 52.3113 256.738 55.512C249.489 57.7322 241.189 59.3191 232.242 60.0832C237.806 57.6831 242.546 53.7021 245.877 48.6322C249.208 43.5624 250.983 37.6258 250.983 31.5561ZM287.26 31.5561C287.26 27.0954 285.257 22.8916 281.782 19.1724C276.561 13.5847 268.019 8.95489 257.334 5.68428C255.201 5.03061 252.979 4.43555 250.684 3.89458C266.543 5.3597 280.725 7.92479 292.155 11.2788C301.358 13.9836 308.779 17.1911 313.822 20.6939C316.344 22.4408 318.27 24.2575 319.541 26.0833C320.812 27.9091 321.439 29.7258 321.442 31.5651C321.444 33.4044 320.814 35.2144 319.541 37.0447C317.32 40.2409 313.08 43.3966 307.168 46.2411C298.316 50.5238 285.764 54.1303 270.813 56.6413C264.501 57.7074 257.766 58.5775 250.688 59.2312C256.812 57.7908 262.386 55.9313 267.252 53.7291C273.326 50.9679 278.293 47.6747 281.773 43.9465C285.253 40.2184 287.269 36.0146 287.269 31.5561H287.26ZM292.717 53.7674C302.055 51.0265 309.638 47.7671 314.963 44.075C317.624 42.229 319.727 40.2725 321.185 38.1852C322.643 36.098 323.448 33.8642 323.435 31.5539C323.421 29.2435 322.629 27.0052 321.185 24.9202C318.63 21.2709 314.124 18.0048 308.048 15.0656C299.144 10.7694 286.83 7.21027 272.214 4.67447C289.777 6.19595 305.562 8.46125 318.708 11.2856C331.306 13.9904 341.496 17.2204 348.448 20.7525C351.921 22.5152 354.582 24.359 356.321 26.1892C358.06 28.0195 358.885 29.8092 358.885 31.5539C358.885 33.2985 358.071 35.0724 356.321 36.9162C353.268 40.135 347.404 43.3312 339.301 46.1871C327.153 50.4878 309.958 54.0987 289.5 56.6255C283.959 57.3017 278.178 57.9125 272.178 58.4287C279.107 57.2626 285.964 55.7064 292.717 53.7674ZM319.129 53.7854C331.839 51.0535 342.144 47.8055 349.354 44.1472C352.953 42.3146 355.795 40.3829 357.779 38.3047C359.763 36.2265 360.899 33.9612 360.899 31.5561C360.899 29.1511 359.754 26.8745 357.779 24.8053C354.305 21.1763 348.232 17.9507 339.973 15.025C328.951 11.1323 314.045 7.83463 296.406 5.36646C315.208 6.85187 332.212 8.86698 346.722 11.2968C362.919 14.0017 376.011 17.2407 384.978 20.7931C389.461 22.5648 392.908 24.4243 395.169 26.2772C396.149 27.0386 396.993 27.9608 397.666 29.0045C398.174 29.7574 398.446 30.6458 398.446 31.555C398.446 32.4642 398.174 33.3526 397.666 34.1054C396.669 35.7621 394.604 37.5383 391.533 39.2604C386.166 42.2876 377.797 45.1727 367.04 47.7514C349.239 52.034 324.89 55.4917 296.422 57.7435C304.619 56.5939 312.239 55.2731 319.129 53.7854ZM65.2799 51.8086C45.4996 49.1038 29.5119 45.8602 18.5206 42.2966C13.0317 40.5182 8.79577 38.6473 6.00857 36.7765C4.61609 35.8433 3.59029 34.9101 2.93792 34.0288C2.28555 33.1475 2.00661 32.3383 2.00436 31.5493C2.00211 30.7604 2.28555 29.9602 2.93792 29.0699C4.15268 27.4109 6.71493 25.6055 10.4829 23.8856C17.0786 20.8404 27.3141 17.9507 40.4605 15.3766C59.656 11.5899 85.067 8.44548 114.66 6.20947C106.933 7.14941 99.6667 8.18626 92.9292 9.31553C76.6469 12.0429 63.46 15.2842 54.2661 18.9222C49.6657 20.7458 46.0642 22.6617 43.5424 24.7196C42.3866 25.6265 41.3919 26.7223 40.6 27.9609C39.9015 29.0289 39.5294 30.2781 39.5294 31.555C39.5294 32.8319 39.9015 34.081 40.6 35.149C41.9025 37.2791 44.2331 39.1883 47.4657 41.0095C53.1256 44.19 61.6131 47.0954 72.474 49.7011C84.0525 52.4803 98.3282 54.9124 114.662 56.8937C96.461 55.5255 79.8436 53.8079 65.2799 51.8086ZM437.042 34.0288C435.827 35.6878 433.267 37.4932 429.499 39.2243C422.903 42.2695 412.668 45.1592 399.521 47.7423C380.324 51.5201 354.915 54.6645 325.318 56.8982C333.047 55.9606 340.315 54.9237 347.053 53.7944C363.333 51.067 376.522 47.8235 385.716 44.1855C390.314 42.3642 393.918 40.4483 396.437 38.3881C397.594 37.4831 398.589 36.3878 399.38 35.149C400.081 34.082 400.454 32.8325 400.454 31.555C400.454 30.2775 400.081 29.028 399.38 27.9609C398.079 25.8286 395.747 23.9217 392.516 22.1004C386.856 18.92 378.369 16.0145 367.506 13.4089C355.93 10.6296 341.652 8.19753 325.32 6.21398C343.519 7.58894 360.138 9.30652 374.702 11.3058C394.48 14.0107 410.47 17.2542 421.459 20.8179C426.948 22.5963 431.184 24.4649 433.971 26.338C435.366 27.2712 436.392 28.2044 437.042 29.0857C437.692 29.967 437.973 30.7762 437.975 31.5651C437.978 32.354 437.694 33.1429 437.042 34.0288Z" fill="#111115"/>
</svg>
