<svg width="100" height="101" viewBox="0 0 100 101" fill="none" xmlns="http://www.w3.org/2000/svg">
<path d="M71.028 47.2247C73.9611 50.3383 76.1504 54.0763 77.4312 58.1576C78.7121 62.2389 79.0512 66.5575 78.4231 70.7887C92.3836 63.6744 95.3876 42.5868 83.861 31.8431C72.4449 19.7037 50.434 23.7459 44.0261 39.0382C53.6125 36.7278 64.3775 39.9785 71.028 47.2247Z" fill="#111115"/>
<path d="M75.0532 66.6358C75.0538 62.066 73.784 57.586 71.3856 53.6961C68.9872 49.8063 65.5547 46.6597 61.4714 44.6079C65.0966 63.4319 46.9364 81.2006 28.087 77.0477C30.0482 81.2578 33.1615 84.8265 37.0666 87.3407C40.9717 89.855 45.5089 91.2121 50.1532 91.255C63.6967 91.5827 75.2404 79.9964 75.0532 66.6358Z" fill="#111115"/>
<path d="M45.094 61.5299C29.5847 58.8493 18.9005 42.3826 22.9045 27.0265C7.89297 33.5578 4.21668 55.6453 16.1348 66.6784C26.8658 78.0604 47.3705 75.35 54.8124 61.7044C51.5869 62.2042 48.2995 62.1452 45.094 61.5299Z" fill="#111115"/>
<path d="M25.7893 33.7365C25.787 38.1994 26.9982 42.579 29.2931 46.4066C31.588 50.2342 34.8804 53.3659 38.818 55.4666C33.9801 36.3193 52.3317 17.2103 71.7726 21.4482C59.3439 -0.222278 25.7297 8.76844 25.7893 33.7365Z" fill="#111115"/>
<path d="M98.1023 50.2372H96.2088C96.2096 60.9291 92.503 71.2904 85.7207 79.5556C78.9384 87.8209 69.5 93.4788 59.0137 95.5652C48.5275 97.6516 37.6422 96.0374 28.2126 90.9977C18.7831 85.958 11.3928 77.8046 7.30094 67.9267C3.20908 58.0489 2.66887 47.0578 5.77236 36.8264C8.87585 26.5949 15.431 17.7561 24.3209 11.8159C33.2108 5.87583 43.8853 3.20198 54.5256 4.25001C65.1659 5.29803 75.1137 10.0031 82.6738 17.5634C86.9715 21.8491 90.3798 26.942 92.7026 32.5494C95.0254 38.1567 96.217 44.1679 96.2088 50.2372H100C99.9975 40.3485 97.0628 30.6826 91.567 22.4618C86.0712 14.2409 78.2611 7.83427 69.1244 4.05198C59.9876 0.269677 49.9344 -0.71842 40.2361 1.21263C30.5378 3.14367 21.6298 7.90714 14.6387 14.9007C7.64749 21.8943 2.88705 30.8038 0.959306 40.5028C-0.968439 50.2018 0.0230794 60.2546 3.80849 69.3901C7.5939 78.5256 14.0032 86.3334 22.2259 91.8264C30.4487 97.3194 40.1156 100.251 50.0043 100.25C63.2636 100.249 75.9796 94.9811 85.3553 85.6053C94.7311 76.2296 99.9989 63.5136 100 50.2543L98.1023 50.2372Z" fill="#111115"/>
</svg>
