<svg width="440" height="77" viewBox="0 0 440 77" fill="#000" xmlns="http://www.w3.org/2000/svg">
<path d="M46.3765 3.42875H26.0934L25.9878 4.1145C32.9601 7.44529 35.4955 13.715 30.0021 20.3766L30.2134 20.1807L18.0647 35.2672V13.5191C18.0647 9.60051 19.1211 6.17175 22.3959 3.42875H0C3.27488 6.17175 4.33129 9.60051 4.33129 13.5191V61.9135C4.33129 65.8321 3.27488 69.2608 0 72.0038H22.3959C19.1211 69.2608 18.0647 65.8321 18.0647 61.9135V38.8919L21.5508 34.5814C25.1426 37.9122 27.678 42.9084 31.2698 50.7455L43.2073 77L44.1581 76.902L38.2421 24.5891C32.9601 28.2137 27.9949 31.2506 23.4524 32.2303L46.3765 3.82061V3.42875Z" fill="black"/>
<path d="M70.1565 0H69.1001L46.8098 72.0038H67.1986L67.3042 71.2201C60.1206 67.0076 54.0991 56.9173 56.7401 48.1005H70.896L75.7555 64.5585C76.9176 68.4771 75.5442 70.5344 74.0653 72.0038H92.8694L70.1565 0ZM63.8181 24.4911L70.1565 45.7494H57.4796L63.8181 24.4911Z" fill="black"/>
<path d="M97.256 72.0038H118.173L118.279 71.2201C105.496 61.8155 99.3688 49.0802 99.3688 35.1692V28.1158L132.857 74.4529H133.702V3.42875H112.785L112.68 4.21247C124.511 10.874 131.589 26.7443 131.589 40.6552V48.1985L98.1011 0.979643H97.256V72.0038Z" fill="black"/>
<path d="M160.251 3.42875H141.13C144.405 6.17175 145.461 9.60051 145.461 13.5191V61.9135C145.461 65.8321 144.405 69.2608 141.13 72.0038H160.251C179.9 72.0038 185.499 57.5051 185.499 39.4796C185.499 20.4746 180.534 3.42875 160.251 3.42875ZM171.555 42.0267C171.555 58.5827 170.71 70.1425 159.195 70.1425V5.19211C168.808 5.38804 171.555 12.6374 171.555 36.8346V42.0267Z" fill="black"/>
<path d="M212.734 42.5165L226.679 3.42875H210.199L210.093 4.1145C216.115 8.22901 219.707 15.9682 216.432 25.2748L211.15 40.4593L202.065 10.7761L202.17 10.972C201.008 7.24936 202.276 5.19211 204.389 3.42875H185.162L199.001 45.7494V61.9135C199.001 65.8321 197.945 69.2608 194.67 72.0038H217.066C213.791 69.2608 212.734 65.8321 212.734 61.9135V42.5165Z" fill="black"/>
<path d="M274.745 31.2506L273.688 3.42875H231.855L230.798 31.2506L231.643 31.3486C235.235 19.6908 240.411 7.34733 245.905 5.29007V61.9135C245.905 65.8321 244.848 69.2608 241.574 72.0038H263.969C260.695 69.2608 259.638 65.8321 259.638 61.9135V5.29007C265.132 7.34733 270.308 19.6908 273.9 31.3486L274.745 31.2506Z" fill="black"/>
<path d="M279.681 36.7366C279.681 57.4071 289.083 72.9835 303.45 72.9835C317.923 72.9835 327.22 60.9338 327.22 38.6959C327.22 18.0254 317.818 2.44911 303.45 2.44911C288.978 2.44911 279.681 14.4987 279.681 36.7366ZM290.773 16.556C290.773 9.69847 292.886 5.97583 296.901 5.97583C306.197 5.97583 316.127 34.6794 316.127 58.8766C316.127 65.6361 314.015 69.3588 310.106 69.4567C300.809 69.5547 290.773 40.7532 290.773 16.556Z" fill="black"/>
<path d="M377.712 4.21247C386.903 9.60051 389.861 22.4338 387.959 28.6056L381.198 50.9415L368.627 8.81679C368.416 6.17175 369.578 4.60432 370.74 3.42875H352.147L361.655 33.4059L356.267 50.9415L342.111 3.42875H327.216L349.928 75.4326H350.985L362.817 37.1285L374.86 75.4326H375.916L398.207 3.42875H377.818L377.712 4.21247ZM342.111 3.42875L344.329 10.874C343.167 6.95547 344.541 4.89821 346.02 3.42875H342.111Z" fill="black"/>
<path d="M403.554 72.0038H424.471L424.576 71.2201C411.794 61.8155 405.667 49.0802 405.667 35.1692V28.1158L439.155 74.4529H440V3.42875H419.083L418.977 4.21247C430.809 10.874 437.887 26.7443 437.887 40.6552V48.1985L404.399 0.979643H403.554V72.0038Z" fill="black"/>
</svg>
