<svg width="135" height="101" viewBox="0 0 135 101" fill="none" xmlns="http://www.w3.org/2000/svg">
<path d="M84.6235 0.604351C78.8752 0.598679 73.1692 1.58611 67.7571 3.52309C60.2117 0.823994 52.1279 -0.0216915 44.1872 1.05731C36.2464 2.1363 28.6814 5.10836 22.1297 9.723C15.578 14.3376 10.2317 20.4596 6.5412 27.573C2.85073 34.6863 0.924316 42.5826 0.924316 50.5963C0.924316 58.61 2.85073 66.5063 6.5412 73.6197C10.2317 80.733 15.578 86.855 22.1297 91.4697C28.6814 96.0843 36.2464 99.0563 44.1872 100.135C52.1279 101.214 60.2117 100.369 67.7571 97.6696C74.6205 100.13 81.9388 101.059 89.1992 100.393C96.4596 99.7262 103.486 97.4798 109.787 93.8111C116.088 90.1424 121.51 85.1402 125.673 79.1549C129.837 73.1696 132.641 66.3462 133.889 59.1629C135.137 51.9796 134.799 44.6102 132.899 37.5713C130.999 30.5323 127.582 23.9942 122.888 18.415C118.194 12.8359 112.337 8.35083 105.727 5.27415C99.1173 2.19746 91.9144 0.603625 84.6235 0.604351V0.604351ZM50.8954 96.5057C44.3956 96.5067 37.9698 95.1275 32.0429 92.4595C26.116 89.7915 20.8232 85.8955 16.5145 81.0292C12.2058 76.1628 8.97944 70.4371 7.0489 64.2307C5.11837 58.0243 4.52762 51.4787 5.31575 45.027C6.10388 38.5752 8.25292 32.3643 11.6207 26.8052C14.9885 21.246 19.4983 16.4653 24.8517 12.7792C30.2051 9.09317 36.2802 6.58582 42.6751 5.42302C49.0699 4.26022 55.6388 4.46848 61.9472 6.03403C52.4549 10.884 44.7521 18.6285 39.9535 28.1468C44.5034 23.045 50.4959 19.4459 57.1372 17.8263C63.7785 16.2067 70.7551 16.6431 77.1428 19.0777C83.5305 21.5122 89.0278 25.83 92.9064 31.4591C96.785 37.0881 98.8619 43.7627 98.8619 50.5986C98.8619 57.4345 96.785 64.1091 92.9064 69.7382C89.0278 75.3672 83.5305 79.685 77.1428 82.1196C70.7551 84.5541 63.7785 84.9905 57.1372 83.3709C50.4959 81.7514 44.5034 78.1523 39.9535 73.0504C44.7521 82.5699 52.4548 90.3159 61.9472 95.1678C58.331 96.0598 54.6199 96.5091 50.8954 96.5057V96.5057ZM44.8883 50.5986C44.8883 46.5994 46.0743 42.69 48.2961 39.3648C50.5179 36.0395 53.6759 33.4478 57.3707 31.9174C61.0655 30.387 65.1312 29.9865 69.0535 30.7668C72.9759 31.547 76.5788 33.4728 79.4067 36.3006C82.2346 39.1285 84.1604 42.7314 84.9406 46.6538C85.7208 50.5762 85.3204 54.6418 83.7899 58.3366C82.2595 62.0314 79.6678 65.1894 76.3426 67.4113C73.0174 69.6331 69.108 70.819 65.1087 70.819C59.7463 70.8178 54.6039 68.687 50.8121 64.8952C47.0203 61.1035 44.8896 55.961 44.8883 50.5986V50.5986Z" fill="#111115"/>
</svg>
