<svg width="200" height="166" viewBox="0 0 200 166" fill="none" xmlns="http://www.w3.org/2000/svg">
<path d="M173.53 37.7896C172.89 37.7254 172.246 37.7063 171.603 37.7324H25.2625C22.8508 37.7324 20.1739 38.0663 18.0757 36.6346C16.9308 35.848 16.0037 34.7855 15.3806 33.5457H156.75C158.963 33.5457 160.823 33.3863 162.692 31.8554C165.339 29.6809 167.727 27.1003 170.141 24.6851C172.556 22.2699 175.121 19.8728 177.349 17.2531C178.715 15.6742 179.59 13.7322 179.866 11.6648C180.355 8.00749 179.565 3.73358 176.49 1.36352C174.353 -0.281681 171.787 0.0220949 169.276 0.0220949H97.1095C96.7327 0.0220949 94.8817 2.04326 94.9209 2.00416C93.2086 3.64335 91.5205 5.31261 89.8413 6.9909C88.1622 8.66919 86.4861 10.3475 84.8431 12.0619C84.5417 12.3626 83.1429 14.2424 82.8565 14.2424H155.939C157.414 14.2424 159.045 14.089 160.461 14.5943C162.725 15.4124 164.206 17.1839 165.013 19.3254H22.685C22.1575 19.3254 21.6239 19.2983 21.0963 19.3254C19.9439 19.4322 18.8419 19.8479 17.9069 20.5285C17.2558 21.0091 16.6393 21.5348 16.0619 22.1015C13.2885 24.7001 10.6146 27.392 7.94664 30.0779C4.88983 33.1668 0.99195 36.1925 0.187051 40.71C-0.654023 45.4171 1.74861 51.7723 7.25931 51.9528C7.71753 51.9678 8.17876 51.9528 8.63698 51.9528H155.147C158.119 51.9528 160.874 51.6911 163.159 54.1514C163.939 55.0043 164.552 55.9947 164.968 57.0718H23.3482C21.3737 57.0718 19.6614 57.0718 17.9069 58.2899C16.273 59.4359 14.8712 60.9818 13.4543 62.3654C10.0659 65.6738 6.67146 68.9823 3.45488 72.4501C1.95361 74.0683 0.780928 75.7947 0.292562 77.9692C-0.569614 81.786 0.434248 86.5562 3.83171 88.8721C5.90274 90.2857 8.47419 89.9699 10.8527 89.9699H82.8565C83.2363 89.9699 85.0843 87.9487 85.0451 87.9878C86.7604 86.3486 88.4486 84.6794 90.1277 83.0011C91.8068 81.3228 93.483 79.6475 95.1259 77.9331C95.4274 77.6324 96.8262 75.7495 97.1095 75.7495H24.2978C23.0046 75.7495 21.5666 75.8939 20.2944 75.6202C17.7773 75.0848 16.1313 73.4156 15.2088 71.2831H157.284C157.812 71.2831 158.345 71.3102 158.87 71.2681C160.022 71.163 161.125 70.7471 162.059 70.065C162.712 69.5852 163.329 69.0595 163.907 68.492C166.681 65.9114 169.354 63.2195 172.022 60.5277C175.079 57.4478 178.974 54.4401 179.782 49.9105C180.602 45.3118 178.998 38.5656 173.53 37.7896Z" fill="black"/>
<path d="M193.53 113.49C192.89 113.426 192.246 113.407 191.603 113.433H45.2625C42.8508 113.433 40.1739 113.766 38.0757 112.335C36.9308 111.548 36.0037 110.486 35.3806 109.246H176.75C178.963 109.246 180.823 109.087 182.692 107.556C185.339 105.381 187.727 102.8 190.141 100.385C192.556 97.9701 195.121 95.573 197.349 92.9533C198.715 91.3744 199.59 89.4324 199.866 87.365C200.355 83.7077 199.565 79.4338 196.49 77.0637C194.353 75.4185 191.787 75.7223 189.276 75.7223H117.11C116.733 75.7223 114.882 77.7435 114.921 77.7044C113.209 79.3435 111.52 81.0128 109.841 82.6911C108.162 84.3694 106.486 86.0477 104.843 87.762C104.542 88.0628 103.143 89.9426 102.856 89.9426H175.939C177.414 89.9426 179.045 89.7892 180.461 90.2945C182.725 91.1126 184.206 92.8841 185.013 95.0256H42.685C42.1575 95.0256 41.6239 94.9985 41.0963 95.0256C39.9439 95.1324 38.8419 95.5481 37.9069 96.2287C37.2558 96.7093 36.6393 97.235 36.0619 97.8017C33.2885 100.4 30.6146 103.092 27.9466 105.778C24.8898 108.867 20.992 111.893 20.1871 116.41C19.346 121.117 21.7486 127.472 27.2593 127.653C27.7175 127.668 28.1788 127.653 28.637 127.653H175.147C178.119 127.653 180.874 127.391 183.159 129.852C183.939 130.704 184.552 131.695 184.968 132.772H43.3482C41.3737 132.772 39.6614 132.772 37.9069 133.99C36.273 135.136 34.8712 136.682 33.4543 138.066C30.0659 141.374 26.6715 144.682 23.4549 148.15C21.9536 149.768 20.7809 151.495 20.2926 153.669C19.4304 157.486 20.4342 162.256 23.8317 164.572C25.9027 165.986 28.4742 165.67 30.8527 165.67H102.856C103.236 165.67 105.084 163.649 105.045 163.688C106.76 162.049 108.449 160.38 110.128 158.701C111.807 157.023 113.483 155.348 115.126 153.633C115.427 153.333 116.826 151.45 117.11 151.45H44.2978C43.0046 151.45 41.5666 151.594 40.2944 151.32C37.7773 150.785 36.1313 149.116 35.2088 146.983H177.284C177.812 146.983 178.345 147.01 178.87 146.968C180.022 146.863 181.125 146.447 182.059 145.765C182.712 145.285 183.329 144.76 183.907 144.192C186.681 141.612 189.354 138.92 192.022 136.228C195.079 133.148 198.974 130.14 199.782 125.611C200.602 121.012 198.998 114.266 193.53 113.49Z" fill="black"/>
</svg>
