<svg width="248" height="248" viewBox="0 0 248 248" fill="none" xmlns="http://www.w3.org/2000/svg">
<path d="M155.005 26.173L159.19 27.883L162.143 20.6569L167.053 22.6633C171.238 24.3733 174.759 22.849 176.298 19.0825C177.05 17.2411 177.019 15.4051 176.37 13.8052C175.689 12.1267 174.232 10.7503 171.917 9.80415L163.156 6.22455L155.005 26.173ZM165.905 11.4499L170.146 13.1827C172.154 14.0035 172.893 15.5425 172.129 17.4118C171.388 19.2253 169.793 19.9411 167.673 19.0747L163.488 17.3647L165.905 11.4499Z" fill="#111115"/>
<path d="M172.039 33.5893L184.292 41.2104L186.209 38.1279L177.65 32.8043L187.061 17.6723L183.368 15.3749L172.039 33.5893Z" fill="#111115"/>
<path d="M184.723 41.3169L188.007 44.2603L192.101 41.8058L197.865 46.9718L195.893 51.3285L199.267 54.3521L207.954 33.3332L204.603 30.3297L184.723 41.3169ZM200.638 36.6863C201.666 36.0777 203.51 34.8296 203.51 34.8296L203.555 34.8697C203.555 34.8697 202.493 36.8185 202 37.9077L199.305 43.7912L195.083 40.0068L200.638 36.6863Z" fill="#111115"/>
<path d="M201.823 57.8025L204.563 61.1955L211.022 55.9791L225.792 53.2512L222.92 49.6944L215.955 51.2208C214.552 51.5421 212.661 52.0254 212.661 52.0254L212.624 51.9786C212.624 51.9786 213.532 50.2785 214.122 48.951L217.042 42.417L214.056 38.7198L208.281 52.5861L201.823 57.8025Z" fill="#111115"/>
<path d="M219.401 86.902L220.694 91.2122L228.137 88.9794L229.654 94.0367C230.947 98.3469 234.329 100.12 238.208 98.956C240.105 98.387 241.507 97.2146 242.34 95.7118C243.214 94.1342 243.369 92.1458 242.653 89.7608L239.947 80.7381L219.401 86.902ZM237.619 86.1345L238.929 90.5022C239.55 92.5711 238.82 94.1055 236.895 94.6831C235.027 95.2435 233.476 94.4562 232.82 92.2723L231.527 87.9621L237.619 86.1345Z" fill="#111115"/>
<path d="M224.333 104.799L226.064 119.085L229.658 118.649L228.448 108.67L246.09 106.531L245.568 102.225L224.333 104.799Z" fill="#111115"/>
<path d="M226.334 119.542L226.1 123.946L230.579 125.596L230.168 133.325L225.538 134.521L225.298 139.045L247.119 132.633L247.358 128.139L226.334 119.542ZM239.92 129.036C241.039 129.456 243.167 130.11 243.167 130.11L243.164 130.17C243.164 130.17 240.98 130.564 239.823 130.863L233.549 132.453L233.85 126.791L239.92 129.036Z" fill="#111115"/>
<path d="M224.158 143.144L223.247 147.398L231.344 149.13L242.728 158.868L243.683 154.409L238.129 149.969C236.999 149.083 235.438 147.92 235.438 147.92L235.451 147.862C235.451 147.862 237.338 147.499 238.738 147.123L245.635 145.286L246.627 140.651L232.254 144.877L224.158 143.144Z" fill="#111115"/>
<path d="M212.46 175.088L209.895 178.778L216.266 183.207L213.256 187.536C210.691 191.226 211.408 194.972 214.729 197.28C216.353 198.409 218.141 198.776 219.833 198.493C221.609 198.195 223.26 197.08 224.679 195.039L230.049 187.314L212.46 175.088ZM224.384 188.85L221.785 192.589C220.554 194.36 218.901 194.743 217.252 193.598C215.653 192.486 215.304 190.784 216.604 188.914L219.169 185.224L224.384 188.85Z" fill="#111115"/>
<path d="M201.771 190.326L191.67 200.716L194.283 203.257L201.339 195.999L214.17 208.473L217.215 205.341L201.771 190.326Z" fill="#111115"/>
<path d="M191.416 200.962L187.836 203.538L189.355 208.063L183.071 212.583L179.24 209.722L175.562 212.367L194.225 225.365L197.878 222.737L191.416 200.962ZM192.521 217.5C192.895 218.635 193.718 220.704 193.718 220.704L193.669 220.739C193.669 220.739 191.994 219.284 191.036 218.568L185.868 214.673L190.471 211.362L192.521 217.5Z" fill="#111115"/>
<path d="M171.641 214.052L167.754 216.005L171.471 223.404L171.002 238.377L175.077 236.331L175.064 229.22C175.047 227.784 174.977 225.839 174.977 225.839L175.03 225.812C175.03 225.812 176.495 227.057 177.664 227.914L183.414 232.143L187.65 230.015L175.358 221.451L171.641 214.052Z" fill="#111115"/>
<path d="M139.412 224.971L134.924 225.3L135.491 233.049L130.226 233.435C125.738 233.764 123.274 236.682 123.57 240.721C123.715 242.696 124.556 244.319 125.842 245.458C127.193 246.652 129.101 247.234 131.584 247.052L140.979 246.364L139.412 224.971ZM136.215 242.923L131.667 243.256C129.513 243.414 128.173 242.369 128.026 240.364C127.883 238.42 128.988 237.075 131.262 236.909L135.75 236.58L136.215 242.923Z" fill="#111115"/>
<path d="M120.848 226L106.484 224.627L106.138 228.241L116.173 229.2L114.477 246.939L118.807 247.353L120.848 226Z" fill="#111115"/>
<path d="M106.049 224.739L101.8 223.559L99.2215 227.576L91.7637 225.505L91.5964 220.726L87.2316 219.513L88.7764 242.204L93.1123 243.408L106.049 224.739ZM93.8441 235.952C93.1922 236.954 92.0939 238.891 92.0939 238.891L92.0361 238.875C92.0361 238.875 92.1226 236.657 92.0808 235.462L91.8844 228.994L97.3477 230.511L93.8441 235.952Z" fill="#111115"/>
<path d="M83.4688 217.497L79.5148 215.684L76.0628 223.21L64.0821 232.204L68.2269 234.105L73.769 229.65C74.8794 228.74 76.3536 227.469 76.3536 227.469L76.4081 227.494C76.4081 227.494 76.3519 229.415 76.414 230.863L76.7074 237.995L81.0158 239.971L80.0167 225.023L83.4688 217.497Z" fill="#111115"/>
<path d="M54.7935 199.205L51.7222 195.916L46.0433 201.22L42.4397 197.36C39.3684 194.072 35.5508 193.983 32.5907 196.747C31.1436 198.099 30.4071 199.772 30.3272 201.488C30.2443 203.29 30.9875 205.14 32.687 206.96L39.1162 213.845L54.7935 199.205ZM38.8076 207.976L35.6954 204.644C34.2212 203.065 34.1944 201.366 35.6635 199.994C37.0887 198.663 38.8286 198.68 40.3847 200.347L43.456 203.636L38.8076 207.976Z" fill="#111115"/>
<path d="M42.3639 185.406L34.4394 173.346L31.4058 175.34L36.9414 183.764L22.049 193.55L24.4379 197.185L42.3639 185.406Z" fill="#111115"/>
<path d="M34.0958 173.045L32.3759 168.988L27.6308 169.469L24.6122 162.348L28.2458 159.245L26.4791 155.078L9.69352 170.398L11.4485 174.538L34.0958 173.045ZM17.735 170.473C16.5458 170.587 14.348 170.932 14.348 170.932L14.3246 170.877C14.3246 170.877 16.1129 169.566 17.0213 168.79L21.9581 164.613L24.1694 169.83L17.735 170.473Z" fill="#111115"/>
<path d="M25.6294 150.919L24.5854 146.699L16.5538 148.687L2.06531 144.922L3.15971 149.345L10.0921 150.903C11.4946 151.204 13.4059 151.565 13.4059 151.565L13.4203 151.624C13.4203 151.624 11.8834 152.776 10.7905 153.726L5.39891 158.395L6.53651 162.993L17.5978 152.906L25.6294 150.919Z" fill="#111115"/>
<path d="M21.8755 117.07L22.5134 112.615L14.8219 111.513L15.5704 106.287C16.2083 101.832 13.8844 98.8022 9.87532 98.2281C7.91532 97.9474 6.15021 98.4219 4.76252 99.4354C3.30692 100.5 2.33051 102.239 1.97752 104.704L0.64209 114.029L21.8755 117.07ZM5.02186 110.11L5.6683 105.596C5.97452 103.458 7.28163 102.372 9.27133 102.657C11.2016 102.934 12.2788 104.3 11.9556 106.557L11.3176 111.012L5.02186 110.11Z" fill="#111115"/>
<path d="M24.8616 98.7549L29.3349 85.0464L25.8864 83.9211L22.7616 93.4971L5.8326 87.9729L4.4841 92.1054L24.8616 98.7549Z" fill="#111115"/>
<path d="M29.3518 84.598L31.4245 80.7172L28.0744 77.3332L31.7122 70.522L36.4018 71.398L38.5309 67.4116L16.1017 63.9829L13.9867 67.9429L29.3518 84.598ZM21.0874 70.2763C20.2534 69.4237 18.6063 67.9333 18.6063 67.9333L18.6346 67.8805C18.6346 67.8805 20.7751 68.4469 21.9475 68.6659L28.2883 69.8809L25.6234 74.8705L21.0874 70.2763Z" fill="#111115"/>
<path d="M41.2341 64.1089L43.8574 60.639L37.2526 55.6456L31.0529 42.0077L28.3029 45.6451L31.4585 52.0173C32.1076 53.2978 33.031 55.0114 33.031 55.0114L32.9948 55.0592C32.9948 55.0592 31.1306 54.5901 29.7035 54.3386L22.6763 53.0876L19.8178 56.8686L34.6292 59.1155L41.2341 64.1089Z" fill="#111115"/>
<path d="M65.2925 40.0083L69.1625 37.7133L65.1998 31.0311L69.7406 28.3383C73.6106 26.0433 74.5145 22.3338 72.449 18.8508C71.4392 17.148 69.9632 16.0704 68.3039 15.6246C66.5624 15.1578 64.5956 15.4872 62.4542 16.7571L54.353 21.5613L65.2925 40.0083ZM60.1508 22.5171L64.0724 20.1915C65.93 19.0899 67.595 19.4277 68.6201 21.1563C69.6146 22.8333 69.2252 24.5289 67.2644 25.6917L63.3944 27.9867L60.1508 22.5171Z" fill="#111115"/>
<path d="M81.4435 30.8407L94.933 25.7165L93.644 22.3231L84.2209 25.9026L77.8929 9.24401L73.8264 10.7887L81.4435 30.8407Z" fill="#111115"/>
<path d="M95.2691 25.4772L99.5909 24.6393L100.106 19.9026L107.692 18.432L109.969 22.6272L114.409 21.7665L102.924 2.18192L98.5142 3.03692L95.2691 25.4772ZM101.181 10.0242C101.317 8.83862 101.436 6.61922 101.436 6.61922L101.494 6.60782C101.494 6.60782 102.405 8.62772 102.974 9.67652L106.03 15.3681L100.473 16.4454L101.181 10.0242Z" fill="#111115"/>
<path d="M118.75 21.9344L123.098 21.8068L122.855 13.5304L129.606 0.156738L125.048 0.290425L122.056 6.74092C121.464 8.04884 120.706 9.84182 120.706 9.84182L120.646 9.84358C120.646 9.84358 119.844 8.09633 119.147 6.82623L115.722 0.563956L110.984 0.70292L118.507 13.6579L118.75 21.9344Z" fill="#111115"/>
</svg>
