<svg width="438" height="198" viewBox="0 0 438 198" fill="none" xmlns="http://www.w3.org/2000/svg">
<path d="M291.998 0C265.406 0 240.476 4.82652 218.997 13.2415C197.524 4.8199 172.594 0 146.002 0C65.3693 0 0 44.359 0 99C0 153.641 65.3693 198 146.002 198C172.594 198 197.524 193.173 218.997 184.759C240.476 193.18 265.406 198 291.998 198C372.631 198 438 153.674 438 99C438 44.3259 372.631 0 291.998 0ZM144.985 143.558L105.662 143.617C101.723 129.974 99.6545 115.863 99.5131 101.668L144.919 101.595L144.985 143.558ZM94.5006 101.675C94.6457 115.855 96.6436 129.957 100.444 143.624L69.737 143.67C62.7211 130.768 58.8712 116.396 58.5019 101.728L94.5006 101.675ZM58.5019 96.749C58.8308 82.0807 62.6372 67.6976 69.6107 54.7734L100.351 54.7271C96.584 68.4049 94.624 82.5134 94.5205 96.696L58.5019 96.749ZM144.925 96.6232L99.4998 96.6894C99.5899 82.4954 101.602 68.3784 105.483 54.7205L144.826 54.6609L144.925 96.6232ZM144.839 49.6556L107.085 49.7152C108.899 44.2767 111.158 38.9955 113.839 33.9247C121.219 20.617 130.552 9.67953 144.772 7.82572L144.839 49.6556ZM103.143 45.8156C102.684 47.0867 102.265 48.4109 101.813 49.7218L72.4826 49.7681C84.655 30.2038 104.014 15.7375 126.683 10.2026C116.658 17.876 108.853 30.2171 103.143 45.842V45.8156ZM108.501 11.3877C98.1507 16.2346 88.7744 22.9206 80.8324 31.1175C75.3637 36.7589 70.6043 43.0418 66.659 49.8277L29.6166 49.8807C49.3211 29.7934 79.1106 16.8366 108.501 11.3943V11.3877ZM25.0362 54.8396L63.9666 54.78C57.3824 67.8239 53.803 82.1663 53.4894 96.7622L7.47894 96.8284C7.97754 81.5742 14.8116 66.6378 25.0362 54.8396ZM7.48559 101.801L53.5027 101.734C53.8677 116.332 57.5017 130.664 64.1394 143.683L25.2356 143.736C14.9047 131.998 8.03072 117.061 7.48559 101.801V101.801ZM29.8027 148.709L66.8119 148.649C76.5582 165.414 91.2379 178.795 108.867 186.983C76.9234 180.64 51.0695 169.491 29.8027 148.709V148.709ZM72.6621 148.642L101.953 148.603C103.977 154.853 106.548 160.915 109.638 166.717C114.531 175.715 120.175 182.925 126.976 188.029C104.398 182.474 84.9024 168.336 72.6621 148.642V148.642ZM108.003 150.807C107.743 150.086 107.511 149.324 107.258 148.589L144.992 148.536L145.052 190.366C125.713 187.102 116.153 171.146 108.003 150.807V150.807ZM287.497 143.346L248.321 143.399C244.395 129.767 242.333 115.67 242.191 101.489L287.338 101.383H287.437C287.464 112.328 287.497 132.508 287.51 143.346H287.497ZM149.845 54.6543H161.452L189.167 54.6145C193.107 68.2574 195.176 82.3684 195.317 96.5636L149.905 96.6298C149.905 91.5781 149.905 83.9577 149.905 76.2776C149.865 68.1407 149.851 59.9575 149.845 54.6543ZM236.335 96.4841L200.329 96.5371C200.189 82.3539 198.191 68.2496 194.386 54.5814H212.129H225.093C232.098 67.4736 235.95 81.8303 236.335 96.4841ZM230.724 54.5285L269.621 54.4689C279.925 66.2141 286.799 81.1505 287.344 96.4047L241.327 96.4775C240.984 81.8811 237.361 67.5469 230.724 54.5285V54.5285ZM196.208 101.536C196.553 116.127 200.169 130.458 206.791 143.478L167.734 143.538C157.43 131.793 150.556 116.863 150.011 101.602L196.208 101.536ZM201.207 101.536L237.225 101.483C237.373 115.652 239.371 129.742 243.169 143.399L212.422 143.445C205.424 130.554 201.582 116.199 201.207 101.549V101.536ZM287.404 73.7286C284.569 66.8035 280.764 60.3126 276.103 54.449H287.404V73.7286ZM287.371 49.457H271.901C267.015 44.0897 261.613 39.2113 255.773 34.8913C255.973 34.5073 256.165 34.1035 256.365 33.7195C263.751 20.4118 273.084 9.47429 287.304 7.6271L287.371 49.457ZM251.691 31.9848C247.523 29.1461 243.207 26.5294 238.761 24.1459C247.906 17.5119 258.258 12.7111 269.242 10.0106C262.308 15.2674 256.611 22.7224 251.691 31.9848ZM251.026 11.1824C244.926 14.024 239.153 17.5158 233.808 21.5969C231.9 20.6633 229.972 19.7431 227.998 18.8691C227.2 18.5116 226.356 18.207 225.545 17.8628C233.871 15.0422 242.386 12.8099 251.026 11.1824V11.1824ZM209.67 17.2139C230.312 23.8347 249.624 34.1829 265.027 49.4768L228.025 49.5563C222.618 40.3344 215.712 32.0698 207.589 25.0992C205.874 23.6294 204.101 22.2258 202.27 20.8885C197.175 17.1372 191.712 13.9096 185.963 11.2553C193.981 12.7544 201.898 14.7444 209.67 17.2139V17.2139ZM197.444 23.5699C207.348 30.4954 215.752 39.3353 222.154 49.5629L192.857 49.6092C190.822 43.369 188.255 37.3132 185.185 31.5081C180.299 22.5105 174.655 15.2873 167.847 10.1695C178.469 12.7502 188.509 17.2959 197.444 23.5699V23.5699ZM181.13 34.5868C183.634 39.4373 185.787 44.4598 187.572 49.6159L172.182 49.6556H165.401H149.838L149.772 7.82572C164.078 9.62656 174.223 21.3519 181.13 34.5868ZM149.951 124.252C151.755 128.688 153.969 132.949 156.566 136.977C158.008 139.208 159.577 141.393 161.253 143.531H149.951V124.252ZM149.984 148.53H165.454C165.939 149.073 166.445 149.609 166.943 150.139C171.429 154.881 176.323 159.223 181.569 163.115L181.309 163.592C174.11 177.045 164.437 188.546 150.064 190.386L149.984 148.53ZM168.738 187.526C175.1 182.494 180.705 175.317 185.358 166.598C185.464 166.399 185.577 166.207 185.677 166.009C189.845 168.848 194.161 171.465 198.607 173.848L197.643 174.51C188.737 180.795 178.725 185.359 168.127 187.963L168.738 187.526ZM186.329 186.818C192.02 184.159 197.428 180.936 202.47 177.198C202.829 176.933 203.195 176.668 203.547 176.397C206.206 177.721 208.992 179.045 211.81 180.131C211.145 180.362 210.447 180.587 209.769 180.793C202.094 183.301 194.264 185.314 186.329 186.818V186.818ZM225.791 180.144L225.871 180.104C223.491 179.303 221.124 178.489 218.83 177.601H218.791C201.626 170.981 185.331 161.473 172.288 148.47L209.337 148.417C211.844 152.535 216.417 158.626 218.811 161.804C222.142 165.8 225.809 169.506 229.773 172.881V172.881C236.328 178.445 243.604 183.105 251.405 186.738C242.729 185.111 234.172 182.908 225.791 180.144V180.144ZM214.961 148.43L244.259 148.384C246.302 154.63 248.878 160.69 251.957 166.498C256.857 175.496 262.494 182.706 269.302 187.831C246.719 182.395 227.147 167.929 214.961 148.43V148.43ZM249.77 148.378L287.517 148.318L287.584 190.148C267.281 187.367 256.165 166.22 249.77 148.378ZM429.87 96.1862L383.859 96.259C383.491 81.6621 379.857 67.331 373.222 54.31L412.173 54.2901C422.457 65.9956 429.324 80.932 429.87 96.1862V96.1862ZM378.867 101.244C378.538 115.913 374.732 130.296 367.758 143.22L337.024 143.266C340.786 129.588 342.743 115.479 342.848 101.297L378.867 101.244ZM336.911 54.3696L367.631 54.3232C374.65 67.2246 378.502 81.5972 378.873 96.2656L342.868 96.3186C342.718 82.1374 340.716 68.0359 336.911 54.3696V54.3696ZM407.552 49.2848L370.543 49.3378C360.795 32.5778 346.115 19.2019 328.488 11.0169C360.432 17.353 386.286 28.5156 407.552 49.2848V49.2848ZM364.693 49.351L335.402 49.3974C333.39 43.1443 330.827 37.0805 327.744 31.2764C322.824 22.2854 317.18 15.0754 310.373 9.93112C332.958 15.4929 352.458 29.6436 364.693 49.351V49.351ZM292.304 7.64034C311.642 10.9044 321.202 26.8405 329.353 47.1993C329.612 47.921 329.845 48.6823 330.097 49.4172L292.363 49.4702L292.304 7.64034ZM292.37 54.449L331.693 54.3894C335.632 68.0325 337.7 82.1433 337.842 96.3385L292.437 96.4113L292.37 54.449ZM292.443 101.39L337.869 101.317C337.768 115.515 335.744 129.634 331.852 143.293L292.51 143.346L292.443 101.39ZM292.51 148.305L330.263 148.245C328.449 153.684 326.19 158.965 323.509 164.036C316.13 177.35 306.796 188.281 292.576 190.135L292.51 148.305ZM335.509 148.238L364.839 148.199C352.667 167.756 333.308 182.223 310.639 187.758C321.422 179.753 330.403 164.479 335.515 148.245L335.509 148.238ZM328.861 186.599C339.206 181.758 348.579 175.081 356.523 166.896C361.995 161.258 366.755 154.974 370.696 148.186L407.739 148.133C388.034 168.207 358.218 181.163 328.861 186.606V186.599ZM412.319 143.147L373.389 143.207C379.972 130.165 383.551 115.825 383.866 101.231L429.883 101.158C429.384 116.419 422.55 131.356 412.319 143.154V143.147Z" fill="black"/>
</svg>
