<svg width="711" height="900" viewBox="0 0 711 900" fill="none" xmlns="http://www.w3.org/2000/svg">
<g clip-path="url(#clip0)">
<path d="M326.837 13.8691H301.768L314.36 241.206L326.837 13.8691Z" stroke="#FBB911" stroke-miterlimit="10"/>
<path d="M302.23 32.0049H277.045L314.36 241.206" stroke="#FBB911" stroke-miterlimit="10"/>
<path d="M280.28 49.7949H255.095L314.36 241.206" stroke="#FBB911" stroke-miterlimit="10"/>
<path d="M247.933 98.1963H222.863L314.36 241.206" stroke="#FBB911" stroke-miterlimit="10"/>
<path d="M262.027 73.707H236.958L314.36 241.206" stroke="#FBB911" stroke-miterlimit="10"/>
<path d="M326.144 32.0049H351.329L314.014 241.206" stroke="#FBB911" stroke-miterlimit="10"/>
<path d="M348.094 49.7949H373.164L314.014 241.206" stroke="#FBB911" stroke-miterlimit="10"/>
<path d="M380.326 98.1963H405.511L314.014 241.206" stroke="#FBB911" stroke-miterlimit="10"/>
<path d="M366.232 73.707H391.417L314.014 241.206" stroke="#FBB911" stroke-miterlimit="10"/>
<path d="M351.329 32.0049L324.526 58.6893" stroke="#FBB911" stroke-miterlimit="10"/>
<path d="M372.816 49.9102L343.473 76.5945" stroke="#FBB911" stroke-miterlimit="10"/>
<path d="M391.07 73.8223L357.568 100.16" stroke="#FBB911" stroke-miterlimit="10"/>
<path d="M404.933 98.4268L367.965 125.111" stroke="#FBB911" stroke-miterlimit="10"/>
<path d="M277.276 32.2363L304.078 58.9207" stroke="#FBB911" stroke-miterlimit="10"/>
<path d="M255.789 50.1416L285.132 76.9415" stroke="#FBB911" stroke-miterlimit="10"/>
<path d="M237.535 74.0537L271.038 100.392" stroke="#FBB911" stroke-miterlimit="10"/>
<path d="M223.672 98.6582L260.64 125.343" stroke="#FBB911" stroke-miterlimit="10"/>
<line y1="-0.5" x2="219.52" y2="-0.5" transform="matrix(-0.0338487 0.999427 0.999427 0.0338487 321.939 13.7686)" stroke="#FBB818"/>
<line y1="-0.5" x2="213.998" y2="-0.5" transform="matrix(-0.0163022 0.999867 0.999867 0.0163022 318.063 13.7686)" stroke="#FBB818"/>
<line y1="-0.5" x2="213.97" y2="-0.5" transform="matrix(-8.65463e-10 1 1 1.3004e-10 314.575 13.7686)" stroke="#FBB818"/>
<line y1="-0.5" x2="214.005" y2="-0.5" transform="matrix(0.018113 0.999836 0.999836 -0.0181129 310.698 13.7686)" stroke="#FBB818"/>
<line y1="-0.5" x2="214.125" y2="-0.5" transform="matrix(0.038016 0.999277 0.999277 -0.0380159 306.434 13.7686)" stroke="#FBB818"/>
</g>
<g clip-path="url(#clip1)">
<path d="M188.202 141.31H163.132L175.725 368.647L188.202 141.31Z" stroke="#FBB911" stroke-miterlimit="10"/>
<path d="M163.595 159.445H138.41L175.725 368.646" stroke="#FBB911" stroke-miterlimit="10"/>
<path d="M141.645 177.235H116.46L175.725 368.647" stroke="#FBB911" stroke-miterlimit="10"/>
<path d="M109.297 225.637H84.2281L175.725 368.647" stroke="#FBB911" stroke-miterlimit="10"/>
<path d="M123.392 201.147H98.3223L175.725 368.647" stroke="#FBB911" stroke-miterlimit="10"/>
<path d="M187.509 159.445H212.693L175.378 368.646" stroke="#FBB911" stroke-miterlimit="10"/>
<path d="M209.459 177.235H234.528L175.379 368.647" stroke="#FBB911" stroke-miterlimit="10"/>
<path d="M241.691 225.637H266.875L175.379 368.647" stroke="#FBB911" stroke-miterlimit="10"/>
<path d="M227.596 201.147H252.781L175.379 368.647" stroke="#FBB911" stroke-miterlimit="10"/>
<path d="M212.693 159.445L185.891 186.13" stroke="#FBB911" stroke-miterlimit="10"/>
<path d="M234.181 177.351L204.837 204.035" stroke="#FBB911" stroke-miterlimit="10"/>
<path d="M252.435 201.263L218.932 227.601" stroke="#FBB911" stroke-miterlimit="10"/>
<path d="M266.298 225.867L229.329 252.552" stroke="#FBB911" stroke-miterlimit="10"/>
<path d="M138.641 159.677L165.443 186.361" stroke="#FBB911" stroke-miterlimit="10"/>
<path d="M117.153 177.582L146.497 204.382" stroke="#FBB911" stroke-miterlimit="10"/>
<path d="M98.8997 201.494L132.402 227.832" stroke="#FBB911" stroke-miterlimit="10"/>
<path d="M85.0364 226.099L122.005 252.783" stroke="#FBB911" stroke-miterlimit="10"/>
<line y1="-0.5" x2="219.52" y2="-0.5" transform="matrix(-0.0338487 0.999427 0.999427 0.0338487 183.304 141.209)" stroke="#FBB818"/>
<line y1="-0.5" x2="213.998" y2="-0.5" transform="matrix(-0.0163022 0.999867 0.999867 0.0163022 179.428 141.209)" stroke="#FBB818"/>
<line y1="-0.5" x2="213.97" y2="-0.5" transform="matrix(-8.65463e-10 1 1 1.3004e-10 175.939 141.209)" stroke="#FBB818"/>
<line y1="-0.5" x2="214.005" y2="-0.5" transform="matrix(0.018113 0.999836 0.999836 -0.0181129 172.063 141.209)" stroke="#FBB818"/>
<line y1="-0.5" x2="214.125" y2="-0.5" transform="matrix(0.038016 0.999277 0.999277 -0.0380159 167.799 141.209)" stroke="#FBB818"/>
</g>
<g clip-path="url(#clip2)">
<path d="M41.2017 5.86914H16.1324L28.7248 233.206L41.2017 5.86914Z" stroke="#FBB911" stroke-miterlimit="10"/>
<path d="M16.5948 24.0049H-8.58995L28.7251 233.206" stroke="#FBB911" stroke-miterlimit="10"/>
<path d="M-5.35523 41.7949H-30.54L28.7251 233.206" stroke="#FBB911" stroke-miterlimit="10"/>
<path d="M-37.7027 90.1963H-62.7719L28.7251 233.206" stroke="#FBB911" stroke-miterlimit="10"/>
<path d="M-23.6084 65.707H-48.6777L28.7251 233.206" stroke="#FBB911" stroke-miterlimit="10"/>
<path d="M40.5086 24.0049H65.6934L28.3783 233.206" stroke="#FBB911" stroke-miterlimit="10"/>
<path d="M62.4591 41.7949H87.5283L28.3787 233.206" stroke="#FBB911" stroke-miterlimit="10"/>
<path d="M94.6907 90.1963H119.875L28.3785 233.206" stroke="#FBB911" stroke-miterlimit="10"/>
<path d="M80.5965 65.707H105.781L28.3785 233.206" stroke="#FBB911" stroke-miterlimit="10"/>
<path d="M65.6934 24.0049L38.8912 50.6893" stroke="#FBB911" stroke-miterlimit="10"/>
<path d="M87.1812 41.9102L57.8374 68.5945" stroke="#FBB911" stroke-miterlimit="10"/>
<path d="M105.435 65.8223L71.9324 92.1601" stroke="#FBB911" stroke-miterlimit="10"/>
<path d="M119.298 90.4268L82.3294 117.111" stroke="#FBB911" stroke-miterlimit="10"/>
<path d="M-8.3593 24.2363L18.4429 50.9207" stroke="#FBB911" stroke-miterlimit="10"/>
<line y1="-0.5" x2="219.52" y2="-0.5" transform="matrix(-0.0338487 0.999427 0.999427 0.0338487 36.3042 5.76855)" stroke="#FBB818"/>
<line y1="-0.5" x2="213.998" y2="-0.5" transform="matrix(-0.0163022 0.999867 0.999867 0.0163022 32.4277 5.76855)" stroke="#FBB818"/>
<line y1="-0.5" x2="213.97" y2="-0.5" transform="matrix(-8.65463e-10 1 1 1.3004e-10 28.9395 5.76855)" stroke="#FBB818"/>
<line y1="-0.5" x2="214.005" y2="-0.5" transform="matrix(0.018113 0.999836 0.999836 -0.0181129 25.063 5.76855)" stroke="#FBB818"/>
<line y1="-0.5" x2="214.125" y2="-0.5" transform="matrix(0.038016 0.999277 0.999277 -0.0380159 20.7988 5.76855)" stroke="#FBB818"/>
</g>
<g clip-path="url(#clip3)">
<path d="M326.837 262.723H301.768L314.36 490.06L326.837 262.723Z" stroke="#FBB911" stroke-miterlimit="10"/>
<path d="M302.23 280.858H277.045L314.36 490.059" stroke="#FBB911" stroke-miterlimit="10"/>
<path d="M280.28 298.648H255.095L314.36 490.06" stroke="#FBB911" stroke-miterlimit="10"/>
<path d="M247.933 347.05H222.863L314.36 490.06" stroke="#FBB911" stroke-miterlimit="10"/>
<path d="M262.027 322.561H236.958L314.36 490.06" stroke="#FBB911" stroke-miterlimit="10"/>
<path d="M326.144 280.858H351.329L314.014 490.059" stroke="#FBB911" stroke-miterlimit="10"/>
<path d="M348.094 298.648H373.164L314.014 490.06" stroke="#FBB911" stroke-miterlimit="10"/>
<path d="M380.326 347.05H405.511L314.014 490.06" stroke="#FBB911" stroke-miterlimit="10"/>
<path d="M366.232 322.561H391.417L314.014 490.06" stroke="#FBB911" stroke-miterlimit="10"/>
<path d="M351.329 280.858L324.526 307.543" stroke="#FBB911" stroke-miterlimit="10"/>
<path d="M372.816 298.764L343.473 325.448" stroke="#FBB911" stroke-miterlimit="10"/>
<path d="M391.07 322.676L357.568 349.014" stroke="#FBB911" stroke-miterlimit="10"/>
<path d="M404.933 347.28L367.965 373.965" stroke="#FBB911" stroke-miterlimit="10"/>
<path d="M277.276 281.09L304.078 307.774" stroke="#FBB911" stroke-miterlimit="10"/>
<path d="M255.789 298.995L285.132 325.795" stroke="#FBB911" stroke-miterlimit="10"/>
<path d="M237.535 322.907L271.038 349.245" stroke="#FBB911" stroke-miterlimit="10"/>
<path d="M223.672 347.512L260.64 374.196" stroke="#FBB911" stroke-miterlimit="10"/>
<line y1="-0.5" x2="219.52" y2="-0.5" transform="matrix(-0.0338487 0.999427 0.999427 0.0338487 321.939 262.622)" stroke="#FBB818"/>
<line y1="-0.5" x2="213.998" y2="-0.5" transform="matrix(-0.0163022 0.999867 0.999867 0.0163022 318.063 262.622)" stroke="#FBB818"/>
<line y1="-0.5" x2="213.97" y2="-0.5" transform="matrix(-8.65463e-10 1 1 1.3004e-10 314.575 262.622)" stroke="#FBB818"/>
<line y1="-0.5" x2="214.005" y2="-0.5" transform="matrix(0.018113 0.999836 0.999836 -0.0181129 310.698 262.622)" stroke="#FBB818"/>
<line y1="-0.5" x2="214.125" y2="-0.5" transform="matrix(0.038016 0.999277 0.999277 -0.0380159 306.434 262.622)" stroke="#FBB818"/>
</g>
<g clip-path="url(#clip4)">
<path d="M188.202 398.774H163.132L175.725 626.111L188.202 398.774Z" stroke="#FBB911" stroke-miterlimit="10"/>
<path d="M163.595 416.91H138.41L175.725 626.111" stroke="#FBB911" stroke-miterlimit="10"/>
<path d="M141.645 434.7H116.46L175.725 626.112" stroke="#FBB911" stroke-miterlimit="10"/>
<path d="M109.297 483.102H84.2281L175.725 626.111" stroke="#FBB911" stroke-miterlimit="10"/>
<path d="M123.392 458.612H98.3223L175.725 626.112" stroke="#FBB911" stroke-miterlimit="10"/>
<path d="M187.509 416.91H212.693L175.378 626.111" stroke="#FBB911" stroke-miterlimit="10"/>
<path d="M209.459 434.7H234.528L175.379 626.112" stroke="#FBB911" stroke-miterlimit="10"/>
<path d="M241.691 483.102H266.875L175.379 626.111" stroke="#FBB911" stroke-miterlimit="10"/>
<path d="M227.596 458.612H252.781L175.379 626.112" stroke="#FBB911" stroke-miterlimit="10"/>
<path d="M212.693 416.91L185.891 443.595" stroke="#FBB911" stroke-miterlimit="10"/>
<path d="M234.181 434.815L204.837 461.5" stroke="#FBB911" stroke-miterlimit="10"/>
<path d="M252.435 458.728L218.932 485.065" stroke="#FBB911" stroke-miterlimit="10"/>
<path d="M266.298 483.332L229.329 510.016" stroke="#FBB911" stroke-miterlimit="10"/>
<path d="M138.641 417.142L165.443 443.826" stroke="#FBB911" stroke-miterlimit="10"/>
<path d="M117.153 435.047L146.497 461.847" stroke="#FBB911" stroke-miterlimit="10"/>
<path d="M98.8997 458.959L132.402 485.297" stroke="#FBB911" stroke-miterlimit="10"/>
<path d="M85.0364 483.563L122.005 510.248" stroke="#FBB911" stroke-miterlimit="10"/>
<line y1="-0.5" x2="219.52" y2="-0.5" transform="matrix(-0.0338487 0.999427 0.999427 0.0338487 183.304 398.674)" stroke="#FBB818"/>
<line y1="-0.5" x2="213.998" y2="-0.5" transform="matrix(-0.0163022 0.999867 0.999867 0.0163022 179.428 398.674)" stroke="#FBB818"/>
<line y1="-0.5" x2="213.97" y2="-0.5" transform="matrix(-8.65463e-10 1 1 1.3004e-10 175.939 398.674)" stroke="#FBB818"/>
<line y1="-0.5" x2="214.005" y2="-0.5" transform="matrix(0.018113 0.999836 0.999836 -0.0181129 172.063 398.674)" stroke="#FBB818"/>
<line y1="-0.5" x2="214.125" y2="-0.5" transform="matrix(0.038016 0.999277 0.999277 -0.0380159 167.799 398.674)" stroke="#FBB818"/>
</g>
<g clip-path="url(#clip5)">
<path d="M326.837 525.354H301.768L314.36 752.691L326.837 525.354Z" stroke="#FBB911" stroke-miterlimit="10"/>
<path d="M302.23 543.489H277.045L314.36 752.69" stroke="#FBB911" stroke-miterlimit="10"/>
<path d="M280.28 561.279H255.095L314.36 752.691" stroke="#FBB911" stroke-miterlimit="10"/>
<path d="M247.933 609.681H222.863L314.36 752.69" stroke="#FBB911" stroke-miterlimit="10"/>
<path d="M262.027 585.191H236.958L314.36 752.691" stroke="#FBB911" stroke-miterlimit="10"/>
<path d="M326.144 543.489H351.329L314.014 752.69" stroke="#FBB911" stroke-miterlimit="10"/>
<path d="M348.094 561.279H373.164L314.014 752.691" stroke="#FBB911" stroke-miterlimit="10"/>
<path d="M380.326 609.681H405.511L314.014 752.69" stroke="#FBB911" stroke-miterlimit="10"/>
<path d="M366.232 585.191H391.417L314.014 752.691" stroke="#FBB911" stroke-miterlimit="10"/>
<path d="M351.329 543.489L324.526 570.174" stroke="#FBB911" stroke-miterlimit="10"/>
<path d="M372.816 561.395L343.473 588.079" stroke="#FBB911" stroke-miterlimit="10"/>
<path d="M391.07 585.307L357.568 611.644" stroke="#FBB911" stroke-miterlimit="10"/>
<path d="M404.933 609.911L367.965 636.596" stroke="#FBB911" stroke-miterlimit="10"/>
<path d="M277.276 543.721L304.078 570.405" stroke="#FBB911" stroke-miterlimit="10"/>
<path d="M255.789 561.626L285.132 588.426" stroke="#FBB911" stroke-miterlimit="10"/>
<path d="M237.535 585.538L271.038 611.876" stroke="#FBB911" stroke-miterlimit="10"/>
<path d="M223.672 610.143L260.64 636.827" stroke="#FBB911" stroke-miterlimit="10"/>
<line y1="-0.5" x2="219.52" y2="-0.5" transform="matrix(-0.0338487 0.999427 0.999427 0.0338487 321.939 525.253)" stroke="#FBB818"/>
<line y1="-0.5" x2="213.998" y2="-0.5" transform="matrix(-0.0163022 0.999867 0.999867 0.0163022 318.063 525.253)" stroke="#FBB818"/>
<line y1="-0.5" x2="213.97" y2="-0.5" transform="matrix(-8.65463e-10 1 1 1.3004e-10 314.575 525.253)" stroke="#FBB818"/>
<line y1="-0.5" x2="214.005" y2="-0.5" transform="matrix(0.018113 0.999836 0.999836 -0.0181129 310.698 525.253)" stroke="#FBB818"/>
<line y1="-0.5" x2="214.125" y2="-0.5" transform="matrix(0.038016 0.999277 0.999277 -0.0380159 306.434 525.253)" stroke="#FBB818"/>
</g>
<g clip-path="url(#clip6)">
<path d="M327.202 782.869H302.132L314.725 1010.21L327.202 782.869Z" stroke="#FBB911" stroke-miterlimit="10"/>
<path d="M302.595 801.005H277.41L314.725 1010.21" stroke="#FBB911" stroke-miterlimit="10"/>
<path d="M280.645 818.795H255.46L314.725 1010.21" stroke="#FBB911" stroke-miterlimit="10"/>
<path d="M248.297 867.196H223.228L314.725 1010.21" stroke="#FBB911" stroke-miterlimit="10"/>
<path d="M262.392 842.707H237.322L314.725 1010.21" stroke="#FBB911" stroke-miterlimit="10"/>
<path d="M326.509 801.005H351.693L314.378 1010.21" stroke="#FBB911" stroke-miterlimit="10"/>
<path d="M348.459 818.795H373.528L314.379 1010.21" stroke="#FBB911" stroke-miterlimit="10"/>
<path d="M380.691 867.196H405.875L314.379 1010.21" stroke="#FBB911" stroke-miterlimit="10"/>
<path d="M366.596 842.707H391.781L314.379 1010.21" stroke="#FBB911" stroke-miterlimit="10"/>
<path d="M351.693 801.005L324.891 827.689" stroke="#FBB911" stroke-miterlimit="10"/>
<path d="M373.181 818.91L343.837 845.595" stroke="#FBB911" stroke-miterlimit="10"/>
<path d="M391.435 842.822L357.932 869.16" stroke="#FBB911" stroke-miterlimit="10"/>
<path d="M405.298 867.427L368.329 894.111" stroke="#FBB911" stroke-miterlimit="10"/>
<path d="M277.641 801.236L304.443 827.921" stroke="#FBB911" stroke-miterlimit="10"/>
<path d="M256.153 819.142L285.497 845.941" stroke="#FBB911" stroke-miterlimit="10"/>
<path d="M237.9 843.054L271.402 869.392" stroke="#FBB911" stroke-miterlimit="10"/>
<path d="M224.036 867.658L261.005 894.343" stroke="#FBB911" stroke-miterlimit="10"/>
<line y1="-0.5" x2="219.52" y2="-0.5" transform="matrix(-0.0338487 0.999427 0.999427 0.0338487 322.304 782.769)" stroke="#FBB818"/>
<line y1="-0.5" x2="213.998" y2="-0.5" transform="matrix(-0.0163022 0.999867 0.999867 0.0163022 318.428 782.769)" stroke="#FBB818"/>
<line y1="-0.5" x2="213.97" y2="-0.5" transform="matrix(-8.65463e-10 1 1 1.3004e-10 314.939 782.769)" stroke="#FBB818"/>
<line y1="-0.5" x2="214.005" y2="-0.5" transform="matrix(0.018113 0.999836 0.999836 -0.0181129 311.063 782.769)" stroke="#FBB818"/>
<line y1="-0.5" x2="214.125" y2="-0.5" transform="matrix(0.038016 0.999277 0.999277 -0.0380159 306.799 782.769)" stroke="#FBB818"/>
</g>
<g clip-path="url(#clip7)">
<path d="M468.202 652.869H443.132L455.725 880.206L468.202 652.869Z" stroke="#FBB911" stroke-miterlimit="10"/>
<path d="M443.595 671.005H418.41L455.725 880.206" stroke="#FBB911" stroke-miterlimit="10"/>
<path d="M421.645 688.795H396.46L455.725 880.206" stroke="#FBB911" stroke-miterlimit="10"/>
<path d="M389.297 737.196H364.228L455.725 880.206" stroke="#FBB911" stroke-miterlimit="10"/>
<path d="M403.392 712.707H378.322L455.725 880.206" stroke="#FBB911" stroke-miterlimit="10"/>
<path d="M467.509 671.005H492.693L455.378 880.206" stroke="#FBB911" stroke-miterlimit="10"/>
<path d="M489.459 688.795H514.528L455.379 880.206" stroke="#FBB911" stroke-miterlimit="10"/>
<path d="M521.691 737.196H546.875L455.379 880.206" stroke="#FBB911" stroke-miterlimit="10"/>
<path d="M507.596 712.707H532.781L455.379 880.206" stroke="#FBB911" stroke-miterlimit="10"/>
<path d="M492.693 671.005L465.891 697.689" stroke="#FBB911" stroke-miterlimit="10"/>
<path d="M514.181 688.91L484.837 715.595" stroke="#FBB911" stroke-miterlimit="10"/>
<path d="M532.435 712.822L498.932 739.16" stroke="#FBB911" stroke-miterlimit="10"/>
<path d="M546.298 737.427L509.329 764.111" stroke="#FBB911" stroke-miterlimit="10"/>
<path d="M418.641 671.236L445.443 697.921" stroke="#FBB911" stroke-miterlimit="10"/>
<path d="M397.153 689.142L426.497 715.941" stroke="#FBB911" stroke-miterlimit="10"/>
<path d="M378.9 713.054L412.402 739.392" stroke="#FBB911" stroke-miterlimit="10"/>
<path d="M365.036 737.658L402.005 764.343" stroke="#FBB911" stroke-miterlimit="10"/>
<line y1="-0.5" x2="219.52" y2="-0.5" transform="matrix(-0.0338487 0.999427 0.999427 0.0338487 463.304 652.769)" stroke="#FBB818"/>
<line y1="-0.5" x2="213.998" y2="-0.5" transform="matrix(-0.0163022 0.999867 0.999867 0.0163022 459.428 652.769)" stroke="#FBB818"/>
<line y1="-0.5" x2="213.97" y2="-0.5" transform="matrix(-8.65463e-10 1 1 1.3004e-10 455.939 652.769)" stroke="#FBB818"/>
<line y1="-0.5" x2="214.005" y2="-0.5" transform="matrix(0.018113 0.999836 0.999836 -0.0181129 452.063 652.769)" stroke="#FBB818"/>
<line y1="-0.5" x2="214.125" y2="-0.5" transform="matrix(0.038016 0.999277 0.999277 -0.0380159 447.799 652.769)" stroke="#FBB818"/>
</g>
<g clip-path="url(#clip8)">
<path d="M49.2017 528.869H24.1324L36.7248 756.206L49.2017 528.869Z" stroke="#FBB911" stroke-miterlimit="10"/>
<path d="M24.5948 547.005H-0.589949L36.7251 756.206" stroke="#FBB911" stroke-miterlimit="10"/>
<path d="M2.64477 564.795H-22.54L36.7251 756.206" stroke="#FBB911" stroke-miterlimit="10"/>
<path d="M-29.7027 613.196H-54.7719L36.7251 756.206" stroke="#FBB911" stroke-miterlimit="10"/>
<path d="M-15.6084 588.707H-40.6777L36.7251 756.206" stroke="#FBB911" stroke-miterlimit="10"/>
<path d="M48.5086 547.005H73.6934L36.3783 756.206" stroke="#FBB911" stroke-miterlimit="10"/>
<path d="M70.4591 564.795H95.5283L36.3787 756.206" stroke="#FBB911" stroke-miterlimit="10"/>
<path d="M102.691 613.196H127.875L36.3785 756.206" stroke="#FBB911" stroke-miterlimit="10"/>
<path d="M88.5965 588.707H113.781L36.3785 756.206" stroke="#FBB911" stroke-miterlimit="10"/>
<path d="M73.6934 547.005L46.8912 573.689" stroke="#FBB911" stroke-miterlimit="10"/>
<path d="M95.1812 564.91L65.8374 591.595" stroke="#FBB911" stroke-miterlimit="10"/>
<path d="M113.435 588.822L79.9324 615.16" stroke="#FBB911" stroke-miterlimit="10"/>
<path d="M127.298 613.427L90.3294 640.111" stroke="#FBB911" stroke-miterlimit="10"/>
<path d="M-0.359298 547.236L26.4429 573.921" stroke="#FBB911" stroke-miterlimit="10"/>
<path d="M-21.8467 565.142L7.49707 591.941" stroke="#FBB911" stroke-miterlimit="10"/>
<line y1="-0.5" x2="219.52" y2="-0.5" transform="matrix(-0.0338487 0.999427 0.999427 0.0338487 44.3042 528.769)" stroke="#FBB818"/>
<line y1="-0.5" x2="213.998" y2="-0.5" transform="matrix(-0.0163022 0.999867 0.999867 0.0163022 40.4277 528.769)" stroke="#FBB818"/>
<line y1="-0.5" x2="213.97" y2="-0.5" transform="matrix(-8.65463e-10 1 1 1.3004e-10 36.9395 528.769)" stroke="#FBB818"/>
<line y1="-0.5" x2="214.005" y2="-0.5" transform="matrix(0.018113 0.999836 0.999836 -0.0181129 33.063 528.769)" stroke="#FBB818"/>
<line y1="-0.5" x2="214.125" y2="-0.5" transform="matrix(0.038016 0.999277 0.999277 -0.0380159 28.7988 528.769)" stroke="#FBB818"/>
</g>
<g clip-path="url(#clip9)">
<path d="M45.2017 268.869H20.1324L32.7248 496.206L45.2017 268.869Z" stroke="#FBB911" stroke-miterlimit="10"/>
<path d="M20.5948 287.005H-4.58995L32.7251 496.206" stroke="#FBB911" stroke-miterlimit="10"/>
<path d="M-1.35523 304.795H-26.54L32.7251 496.206" stroke="#FBB911" stroke-miterlimit="10"/>
<path d="M-33.7027 353.196H-58.7719L32.7251 496.206" stroke="#FBB911" stroke-miterlimit="10"/>
<path d="M-19.6084 328.707H-44.6777L32.7251 496.206" stroke="#FBB911" stroke-miterlimit="10"/>
<path d="M44.5086 287.005H69.6934L32.3783 496.206" stroke="#FBB911" stroke-miterlimit="10"/>
<path d="M66.4591 304.795H91.5283L32.3787 496.206" stroke="#FBB911" stroke-miterlimit="10"/>
<path d="M98.6907 353.196H123.875L32.3785 496.206" stroke="#FBB911" stroke-miterlimit="10"/>
<path d="M84.5965 328.707H109.781L32.3785 496.206" stroke="#FBB911" stroke-miterlimit="10"/>
<path d="M69.6934 287.005L42.8912 313.689" stroke="#FBB911" stroke-miterlimit="10"/>
<path d="M91.1812 304.91L61.8374 331.595" stroke="#FBB911" stroke-miterlimit="10"/>
<path d="M109.435 328.822L75.9324 355.16" stroke="#FBB911" stroke-miterlimit="10"/>
<path d="M123.298 353.427L86.3294 380.111" stroke="#FBB911" stroke-miterlimit="10"/>
<path d="M-4.3593 287.236L22.4429 313.921" stroke="#FBB911" stroke-miterlimit="10"/>
<path d="M-25.8467 305.142L3.49707 331.941" stroke="#FBB911" stroke-miterlimit="10"/>
<line y1="-0.5" x2="219.52" y2="-0.5" transform="matrix(-0.0338487 0.999427 0.999427 0.0338487 40.3042 268.769)" stroke="#FBB818"/>
<line y1="-0.5" x2="213.998" y2="-0.5" transform="matrix(-0.0163022 0.999867 0.999867 0.0163022 36.4277 268.769)" stroke="#FBB818"/>
<line y1="-0.5" x2="213.97" y2="-0.5" transform="matrix(-8.65463e-10 1 1 1.3004e-10 32.9395 268.769)" stroke="#FBB818"/>
<line y1="-0.5" x2="214.005" y2="-0.5" transform="matrix(0.018113 0.999836 0.999836 -0.0181129 29.063 268.769)" stroke="#FBB818"/>
<line y1="-0.5" x2="214.125" y2="-0.5" transform="matrix(0.038016 0.999277 0.999277 -0.0380159 24.7988 268.769)" stroke="#FBB818"/>
</g>
<g clip-path="url(#clip10)">
<path d="M188.202 652.794H163.132L175.725 880.131L188.202 652.794Z" stroke="#FBB911" stroke-miterlimit="10"/>
<path d="M163.595 670.93H138.41L175.725 880.131" stroke="#FBB911" stroke-miterlimit="10"/>
<path d="M141.645 688.72H116.46L175.725 880.131" stroke="#FBB911" stroke-miterlimit="10"/>
<path d="M109.297 737.121H84.2281L175.725 880.131" stroke="#FBB911" stroke-miterlimit="10"/>
<path d="M123.392 712.632H98.3223L175.725 880.131" stroke="#FBB911" stroke-miterlimit="10"/>
<path d="M187.509 670.93H212.693L175.378 880.131" stroke="#FBB911" stroke-miterlimit="10"/>
<path d="M209.459 688.72H234.528L175.379 880.131" stroke="#FBB911" stroke-miterlimit="10"/>
<path d="M241.691 737.121H266.875L175.379 880.131" stroke="#FBB911" stroke-miterlimit="10"/>
<path d="M227.596 712.632H252.781L175.379 880.131" stroke="#FBB911" stroke-miterlimit="10"/>
<path d="M212.693 670.93L185.891 697.614" stroke="#FBB911" stroke-miterlimit="10"/>
<path d="M234.181 688.835L204.837 715.519" stroke="#FBB911" stroke-miterlimit="10"/>
<path d="M252.435 712.747L218.932 739.085" stroke="#FBB911" stroke-miterlimit="10"/>
<path d="M266.298 737.352L229.329 764.036" stroke="#FBB911" stroke-miterlimit="10"/>
<path d="M138.641 671.161L165.443 697.846" stroke="#FBB911" stroke-miterlimit="10"/>
<path d="M117.153 689.066L146.497 715.866" stroke="#FBB911" stroke-miterlimit="10"/>
<path d="M98.8997 712.979L132.402 739.316" stroke="#FBB911" stroke-miterlimit="10"/>
<path d="M85.0364 737.583L122.005 764.267" stroke="#FBB911" stroke-miterlimit="10"/>
<line y1="-0.5" x2="219.52" y2="-0.5" transform="matrix(-0.0338487 0.999427 0.999427 0.0338487 183.304 652.693)" stroke="#FBB818"/>
<line y1="-0.5" x2="213.998" y2="-0.5" transform="matrix(-0.0163022 0.999867 0.999867 0.0163022 179.428 652.693)" stroke="#FBB818"/>
<line y1="-0.5" x2="213.97" y2="-0.5" transform="matrix(-8.65463e-10 1 1 1.3004e-10 175.939 652.693)" stroke="#FBB818"/>
<line y1="-0.5" x2="214.005" y2="-0.5" transform="matrix(0.018113 0.999836 0.999836 -0.0181129 172.063 652.693)" stroke="#FBB818"/>
<line y1="-0.5" x2="214.125" y2="-0.5" transform="matrix(0.038016 0.999277 0.999277 -0.0380159 167.799 652.693)" stroke="#FBB818"/>
</g>
<g clip-path="url(#clip11)">
<path d="M45.2017 802.869H20.1324L32.7248 1030.21L45.2017 802.869Z" stroke="#FBB911" stroke-miterlimit="10"/>
<path d="M20.5948 821.005H-4.58995L32.7251 1030.21" stroke="#FBB911" stroke-miterlimit="10"/>
<path d="M-1.35523 838.795H-26.54L32.7251 1030.21" stroke="#FBB911" stroke-miterlimit="10"/>
<path d="M-33.7027 887.196H-58.7719L32.7251 1030.21" stroke="#FBB911" stroke-miterlimit="10"/>
<path d="M-19.6084 862.707H-44.6777L32.7251 1030.21" stroke="#FBB911" stroke-miterlimit="10"/>
<path d="M44.5086 821.005H69.6934L32.3783 1030.21" stroke="#FBB911" stroke-miterlimit="10"/>
<path d="M66.4591 838.795H91.5283L32.3787 1030.21" stroke="#FBB911" stroke-miterlimit="10"/>
<path d="M98.6907 887.196H123.875L32.3785 1030.21" stroke="#FBB911" stroke-miterlimit="10"/>
<path d="M84.5965 862.707H109.781L32.3785 1030.21" stroke="#FBB911" stroke-miterlimit="10"/>
<path d="M69.6934 821.005L42.8912 847.689" stroke="#FBB911" stroke-miterlimit="10"/>
<path d="M91.1812 838.91L61.8374 865.595" stroke="#FBB911" stroke-miterlimit="10"/>
<path d="M109.435 862.822L75.9324 889.16" stroke="#FBB911" stroke-miterlimit="10"/>
<path d="M123.298 887.427L86.3294 914.111" stroke="#FBB911" stroke-miterlimit="10"/>
<path d="M-4.3593 821.236L22.4429 847.921" stroke="#FBB911" stroke-miterlimit="10"/>
<path d="M-25.8467 839.142L3.49707 865.941" stroke="#FBB911" stroke-miterlimit="10"/>
<line y1="-0.5" x2="219.52" y2="-0.5" transform="matrix(-0.0338487 0.999427 0.999427 0.0338487 40.3042 802.769)" stroke="#FBB818"/>
<line y1="-0.5" x2="213.998" y2="-0.5" transform="matrix(-0.0163022 0.999867 0.999867 0.0163022 36.4277 802.769)" stroke="#FBB818"/>
<line y1="-0.5" x2="213.97" y2="-0.5" transform="matrix(-8.65463e-10 1 1 1.3004e-10 32.9395 802.769)" stroke="#FBB818"/>
<line y1="-0.5" x2="214.005" y2="-0.5" transform="matrix(0.018113 0.999836 0.999836 -0.0181129 29.063 802.769)" stroke="#FBB818"/>
<line y1="-0.5" x2="214.125" y2="-0.5" transform="matrix(0.038016 0.999277 0.999277 -0.0380159 24.7988 802.769)" stroke="#FBB818"/>
</g>
<g clip-path="url(#clip12)">
<path d="M192.202 -114.131H167.132L179.725 113.206L192.202 -114.131Z" stroke="#FBB911" stroke-miterlimit="10"/>
<path d="M167.595 -95.9951H142.41L179.725 113.206" stroke="#FBB911" stroke-miterlimit="10"/>
<path d="M145.645 -78.2051H120.46L179.725 113.206" stroke="#FBB911" stroke-miterlimit="10"/>
<path d="M113.297 -29.8037H88.2281L179.725 113.206" stroke="#FBB911" stroke-miterlimit="10"/>
<path d="M127.392 -54.293H102.322L179.725 113.206" stroke="#FBB911" stroke-miterlimit="10"/>
<path d="M191.509 -95.9951H216.693L179.378 113.206" stroke="#FBB911" stroke-miterlimit="10"/>
<path d="M213.459 -78.2051H238.528L179.379 113.206" stroke="#FBB911" stroke-miterlimit="10"/>
<path d="M245.691 -29.8037H270.875L179.379 113.206" stroke="#FBB911" stroke-miterlimit="10"/>
<path d="M231.596 -54.293H256.781L179.379 113.206" stroke="#FBB911" stroke-miterlimit="10"/>
<line y1="-0.5" x2="219.52" y2="-0.5" transform="matrix(-0.0338487 0.999427 0.999427 0.0338487 187.304 -114.231)" stroke="#FBB818"/>
<line y1="-0.5" x2="213.998" y2="-0.5" transform="matrix(-0.0163022 0.999867 0.999867 0.0163022 183.428 -114.231)" stroke="#FBB818"/>
<line y1="-0.5" x2="213.97" y2="-0.5" transform="matrix(-8.65463e-10 1 1 1.3004e-10 179.939 -114.231)" stroke="#FBB818"/>
<line y1="-0.5" x2="214.005" y2="-0.5" transform="matrix(0.018113 0.999836 0.999836 -0.0181129 176.063 -114.231)" stroke="#FBB818"/>
<line y1="-0.5" x2="214.125" y2="-0.5" transform="matrix(0.038016 0.999277 0.999277 -0.0380159 171.799 -114.231)" stroke="#FBB818"/>
</g>
<g clip-path="url(#clip13)">
<path d="M602.202 782.869H577.132L589.725 1010.21L602.202 782.869Z" stroke="#FBB911" stroke-miterlimit="10"/>
<path d="M577.595 801.005H552.41L589.725 1010.21" stroke="#FBB911" stroke-miterlimit="10"/>
<path d="M555.645 818.795H530.46L589.725 1010.21" stroke="#FBB911" stroke-miterlimit="10"/>
<path d="M523.297 867.196H498.228L589.725 1010.21" stroke="#FBB911" stroke-miterlimit="10"/>
<path d="M537.392 842.707H512.322L589.725 1010.21" stroke="#FBB911" stroke-miterlimit="10"/>
<path d="M601.509 801.005H626.693L589.378 1010.21" stroke="#FBB911" stroke-miterlimit="10"/>
<path d="M623.459 818.795H648.528L589.379 1010.21" stroke="#FBB911" stroke-miterlimit="10"/>
<path d="M655.691 867.196H680.875L589.379 1010.21" stroke="#FBB911" stroke-miterlimit="10"/>
<path d="M641.596 842.707H666.781L589.379 1010.21" stroke="#FBB911" stroke-miterlimit="10"/>
<path d="M626.693 801.005L599.891 827.689" stroke="#FBB911" stroke-miterlimit="10"/>
<path d="M648.181 818.91L618.837 845.595" stroke="#FBB911" stroke-miterlimit="10"/>
<path d="M666.435 842.822L632.932 869.16" stroke="#FBB911" stroke-miterlimit="10"/>
<path d="M680.298 867.427L643.329 894.111" stroke="#FBB911" stroke-miterlimit="10"/>
<path d="M552.641 801.236L579.443 827.921" stroke="#FBB911" stroke-miterlimit="10"/>
<path d="M531.153 819.142L560.497 845.941" stroke="#FBB911" stroke-miterlimit="10"/>
<path d="M512.9 843.054L546.402 869.392" stroke="#FBB911" stroke-miterlimit="10"/>
<path d="M499.036 867.658L536.005 894.343" stroke="#FBB911" stroke-miterlimit="10"/>
<line y1="-0.5" x2="219.52" y2="-0.5" transform="matrix(-0.0338487 0.999427 0.999427 0.0338487 597.304 782.769)" stroke="#FBB818"/>
<line y1="-0.5" x2="213.998" y2="-0.5" transform="matrix(-0.0163022 0.999867 0.999867 0.0163022 593.428 782.769)" stroke="#FBB818"/>
<line y1="-0.5" x2="213.97" y2="-0.5" transform="matrix(-8.65463e-10 1 1 1.3004e-10 589.939 782.769)" stroke="#FBB818"/>
<line y1="-0.5" x2="214.005" y2="-0.5" transform="matrix(0.018113 0.999836 0.999836 -0.0181129 586.063 782.769)" stroke="#FBB818"/>
<line y1="-0.5" x2="214.125" y2="-0.5" transform="matrix(0.038016 0.999277 0.999277 -0.0380159 581.799 782.769)" stroke="#FBB818"/>
</g>
<defs>
<clipPath id="clip0">
<rect width="241.104" height="267.075" fill="white" transform="matrix(-1 0 0 1 434.739 -6)"/>
</clipPath>
<clipPath id="clip1">
<rect width="241.104" height="267.075" fill="white" transform="matrix(-1 0 0 1 296.104 121.44)"/>
</clipPath>
<clipPath id="clip2">
<rect width="241.104" height="267.075" fill="white" transform="matrix(-1 0 0 1 149.104 -14)"/>
</clipPath>
<clipPath id="clip3">
<rect width="241.104" height="267.075" fill="white" transform="matrix(-1 0 0 1 434.739 242.854)"/>
</clipPath>
<clipPath id="clip4">
<rect width="241.104" height="267.075" fill="white" transform="matrix(-1 0 0 1 296.104 378.905)"/>
</clipPath>
<clipPath id="clip5">
<rect width="241.104" height="267.075" fill="white" transform="matrix(-1 0 0 1 434.739 505.484)"/>
</clipPath>
<clipPath id="clip6">
<rect width="241.104" height="267.075" fill="white" transform="matrix(-1 0 0 1 435.104 763)"/>
</clipPath>
<clipPath id="clip7">
<rect width="241.104" height="267.075" fill="white" transform="matrix(-1 0 0 1 576.104 633)"/>
</clipPath>
<clipPath id="clip8">
<rect width="241.104" height="267.075" fill="white" transform="matrix(-1 0 0 1 157.104 509)"/>
</clipPath>
<clipPath id="clip9">
<rect width="241.104" height="267.075" fill="white" transform="matrix(-1 0 0 1 153.104 249)"/>
</clipPath>
<clipPath id="clip10">
<rect width="241.104" height="267.075" fill="white" transform="matrix(-1 0 0 1 296.104 632.925)"/>
</clipPath>
<clipPath id="clip11">
<rect width="241.104" height="267.075" fill="white" transform="matrix(-1 0 0 1 153.104 783)"/>
</clipPath>
<clipPath id="clip12">
<rect width="241.104" height="267.075" fill="white" transform="matrix(-1 0 0 1 300.104 -134)"/>
</clipPath>
<clipPath id="clip13">
<rect width="241.104" height="267.075" fill="white" transform="matrix(-1 0 0 1 710.104 763)"/>
</clipPath>
</defs>
</svg>
